<svg width="158" height="37" viewBox="0 0 158 37" fill="none" xmlns="http://www.w3.org/2000/svg">
<g clip-path="url(#clip0_1_676)">
<path d="M56.6354 15.3789H51.3438V18.6918H57.2433V21.3073H48.0543V7.25354H56.9215V9.869H51.308V12.7983H56.5997V15.3789H56.6354Z" fill="#2A2B2A"/>
<path d="M65.2881 21.3073L65.0736 20.2611H65.0021C64.3585 21.098 63.2858 21.5165 62.0344 21.5165C59.9249 21.5165 58.6735 20.017 58.6735 18.4128C58.6735 15.7625 61.1048 14.5071 64.7875 14.5071V14.3676C64.7875 13.8096 64.5015 13.0424 62.8925 13.0424C61.8199 13.0424 60.7115 13.3911 59.9964 13.8096L59.3886 11.787C60.1037 11.4034 61.5339 10.8803 63.4289 10.8803C66.8971 10.8803 68.0055 12.8681 68.0055 15.2743V18.8313C68.0055 19.8077 68.0412 20.7493 68.1485 21.3073H65.2881ZM64.8948 16.4948C63.1786 16.46 61.8556 16.8784 61.8556 18.099C61.8556 18.901 62.4277 19.3195 63.1428 19.3195C63.9652 19.3195 64.6088 18.7964 64.8233 18.1687C64.859 17.9944 64.8948 17.82 64.8948 17.6108V16.4948Z" fill="#2A2B2A"/>
<path d="M70.5798 18.5174C71.1876 18.8662 72.4033 19.2846 73.3686 19.2846C74.334 19.2846 74.7631 18.9359 74.7631 18.4477C74.7631 17.9246 74.4413 17.6805 73.2256 17.2969C71.0803 16.5994 70.2222 15.4486 70.258 14.2281C70.258 12.3449 71.9385 10.9152 74.5128 10.9152C75.7285 10.9152 76.8011 11.1941 77.4447 11.508L76.8726 13.6701C76.4078 13.426 75.5139 13.0773 74.6201 13.0773C73.8335 13.0773 73.3686 13.3911 73.3686 13.9142C73.3686 14.4024 73.7619 14.6465 75.0491 15.065C77.0156 15.7276 77.8737 16.704 77.8737 18.2036C77.8737 20.0867 76.3363 21.4816 73.3686 21.4816C72.01 21.4816 70.7943 21.2026 70.0077 20.7842L70.5798 18.5174Z" fill="#2A2B2A"/>
<path d="M82.3073 11.1244L83.8805 16.1112C84.0593 16.7041 84.2738 17.4713 84.3811 17.9943H84.4526C84.5956 17.4364 84.7744 16.6692 84.9174 16.1112L86.2046 11.1244H89.6728L87.2415 17.82C85.7398 21.8652 84.7386 23.4694 83.5587 24.5156C82.4146 25.4571 81.2347 25.8058 80.4123 25.9105L79.733 23.1904C80.1263 23.1206 80.6626 22.9463 81.1274 22.6324C81.628 22.3883 82.1643 21.9001 82.4861 21.377C82.5934 21.2375 82.6649 21.098 82.6649 20.9237C82.6649 20.819 82.6291 20.6447 82.5218 20.4006L78.6961 11.0895H82.3073V11.1244Z" fill="#2A2B2A"/>
<path d="M94.3924 7.25354V21.2724H91.1387V7.25354H94.3924Z" fill="#E95626"/>
<path d="M97.1098 14.3676C97.1098 13.1122 97.074 12.0311 97.0383 11.1244H99.8629L100.006 12.5193H100.077C100.506 11.8916 101.579 10.8803 103.295 10.8803C105.441 10.8803 107.014 12.2403 107.014 15.2394V21.2724H103.76V15.6579C103.76 14.3327 103.295 13.4609 102.115 13.4609C101.222 13.4609 100.685 14.0537 100.471 14.6466C100.399 14.8209 100.328 15.1348 100.328 15.4486V21.3073H97.074V14.3676H97.1098Z" fill="#E95626"/>
<path d="M112.019 11.1244L113.414 15.8322C113.664 16.6692 113.879 17.5061 114.022 18.3082H114.093C114.272 17.4713 114.451 16.7041 114.665 15.8322L116.024 11.1244H119.421L115.523 21.3073H112.27L108.48 11.1244H112.019Z" fill="#E95626"/>
<path d="M131.22 16.0764C131.22 19.8077 128.502 21.5165 125.714 21.5165C122.674 21.5165 120.315 19.5636 120.315 16.2856C120.315 13.0075 122.531 10.8803 125.892 10.8803C129.074 10.8803 131.22 13.0424 131.22 16.0764ZM123.676 16.181C123.676 17.9246 124.426 19.2498 125.821 19.2498C127.072 19.2498 127.895 18.0292 127.895 16.181C127.895 14.6466 127.287 13.1122 125.821 13.1122C124.248 13.147 123.676 14.6814 123.676 16.181Z" fill="#E95626"/>
<path d="M136.583 8.2997C136.583 9.17152 135.904 9.86898 134.831 9.86898C133.794 9.86898 133.115 9.17152 133.151 8.2997C133.115 7.39301 133.794 6.69556 134.867 6.69556C135.904 6.69556 136.547 7.35814 136.583 8.2997ZM133.222 21.3072V11.1244H136.476V21.3072H133.222Z" fill="#E95626"/>
<path d="M146.916 21.0283C146.344 21.2724 145.236 21.4816 144.02 21.4816C140.659 21.4816 138.478 19.4939 138.478 16.2856C138.478 13.3214 140.552 10.8803 144.449 10.8803C145.307 10.8803 146.237 11.0198 146.916 11.2639L146.415 13.6004C146.022 13.426 145.45 13.2865 144.592 13.2865C142.876 13.2865 141.767 14.4722 141.803 16.1461C141.803 18.0292 143.09 19.0057 144.664 19.0057C145.414 19.0057 146.022 18.8662 146.523 18.6918L146.916 21.0283Z" fill="#E95626"/>
<path d="M151.207 17.2271C151.314 18.5523 152.637 19.1451 154.139 19.1451C155.247 19.1451 156.141 19.0057 157.035 18.7267L157.464 20.8539C156.391 21.2724 155.104 21.4816 153.674 21.4816C150.134 21.4816 148.096 19.4939 148.096 16.2856C148.096 13.705 149.741 10.8454 153.352 10.8454C156.713 10.8454 158 13.3911 158 15.9369C158 16.4948 157.929 16.9482 157.893 17.1923H151.207V17.2271ZM154.997 15.065C154.997 14.2978 154.639 13.0075 153.173 13.0075C151.814 13.0075 151.242 14.2281 151.171 15.065H154.997Z" fill="#E95626"/>
<path d="M52.7382 30.0952C52.7382 31.8039 51.6656 32.7804 50.2354 32.7804C48.7694 32.7804 47.8398 31.6993 47.8398 30.1998C47.8398 28.6305 48.8409 27.5495 50.3069 27.5495C51.8086 27.5146 52.7382 28.6305 52.7382 30.0952ZM48.8409 30.1649C48.8409 31.2111 49.3773 32.0132 50.2711 32.0132C51.2007 32.0132 51.7013 31.1762 51.7013 30.1301C51.7013 29.1885 51.2007 28.2818 50.2711 28.2818C49.3415 28.2469 48.8409 29.1187 48.8409 30.1649Z" fill="#8B8A8A"/>
<path d="M54.6689 30.0952C54.6689 29.6767 54.6689 29.328 54.6332 29.0141H55.4556L55.4913 29.5721H55.5271C55.7058 29.2931 56.0991 28.9444 56.7427 28.9444C57.3863 28.9444 58.0656 29.3629 58.0656 30.5137V32.7107H57.1003V30.6183C57.1003 30.0952 56.8857 29.6767 56.3852 29.6767C55.9919 29.6767 55.7416 29.9557 55.6343 30.2347C55.5986 30.3044 55.5986 30.4439 55.5986 30.5485V32.7107H54.6332V30.0952H54.6689Z" fill="#8B8A8A"/>
<path d="M60.2109 27.3402H61.1763V32.7106H60.2109V27.3402Z" fill="#8B8A8A"/>
<path d="M64.3585 27.968C64.3585 28.2469 64.1439 28.4562 63.8221 28.4562C63.5004 28.4562 63.2858 28.2469 63.2858 27.968C63.2858 27.689 63.5004 27.4797 63.8221 27.4797C64.1439 27.4797 64.3227 27.689 64.3585 27.968ZM63.3216 32.6758V29.0141H64.287V32.6758H63.3216Z" fill="#8B8A8A"/>
<path d="M66.4322 30.0952C66.4322 29.6767 66.4322 29.328 66.3965 29.0141H67.2188L67.2546 29.5721H67.2904C67.4691 29.2931 67.8624 28.9444 68.506 28.9444C69.1496 28.9444 69.8289 29.3629 69.8289 30.5137V32.7107H68.8636V30.6183C68.8636 30.0952 68.649 29.6767 68.1485 29.6767C67.7552 29.6767 67.5049 29.9557 67.3976 30.2347C67.3619 30.3044 67.3619 30.4439 67.3619 30.5485V32.7107H66.3965V30.0952H66.4322Z" fill="#8B8A8A"/>
<path d="M72.6536 31.1065C72.6893 31.7691 73.2256 32.0481 73.7977 32.0481C74.2268 32.0481 74.5486 31.9783 74.8346 31.8737L74.9776 32.5014C74.6558 32.6409 74.191 32.7106 73.6547 32.7106C72.439 32.7106 71.7239 31.9783 71.7239 30.8624C71.7239 29.8511 72.3675 28.8746 73.5474 28.8746C74.7631 28.8746 75.1564 29.8511 75.1564 30.6531C75.1564 30.8275 75.1564 30.967 75.1206 31.0367H72.6536V31.1065ZM74.334 30.4439C74.334 30.0952 74.191 29.5372 73.5474 29.5372C72.9754 29.5372 72.7251 30.0603 72.6893 30.4439H74.334Z" fill="#8B8A8A"/>
<path d="M80.8771 27.968C80.8771 28.2469 80.6626 28.4562 80.3408 28.4562C80.019 28.4562 79.8045 28.2469 79.8045 27.968C79.8045 27.689 80.019 27.4797 80.3408 27.4797C80.6626 27.4797 80.8414 27.689 80.8771 27.968ZM79.8402 32.6758V29.0141H80.8056V32.6758H79.8402Z" fill="#8B8A8A"/>
<path d="M82.9509 30.0952C82.9509 29.6767 82.9509 29.328 82.9152 29.0141H83.7375L83.7733 29.5721H83.809C83.9878 29.2931 84.3811 28.9444 85.0247 28.9444C85.6683 28.9444 86.3476 29.3629 86.3476 30.5137V32.7107H85.3822V30.6183C85.3822 30.0952 85.1677 29.6767 84.6671 29.6767C84.2738 29.6767 84.0236 29.9557 83.9163 30.2347C83.8805 30.3044 83.8805 30.4439 83.8805 30.5485V32.7107H82.9509V30.0952Z" fill="#8B8A8A"/>
<path d="M88.9935 29.0141L89.6013 30.8624C89.7086 31.1762 89.7801 31.4901 89.8516 31.7691H89.8873C89.9588 31.4552 90.0303 31.1762 90.1376 30.8624L90.7454 29.0141H91.7466L90.3164 32.6758H89.3868L87.9566 29.0141H88.9935Z" fill="#8B8A8A"/>
<path d="M96.931 30.8275C96.931 32.1876 95.9656 32.7804 95.0002 32.7804C93.9276 32.7804 93.1052 32.0481 93.1052 30.8973C93.1052 29.6767 93.9276 28.9444 95.0718 28.9444C96.1801 28.9095 96.931 29.7116 96.931 30.8275ZM94.1064 30.8624C94.1064 31.5599 94.4639 32.1178 95.036 32.1178C95.5723 32.1178 95.9656 31.5947 95.9656 30.8624C95.9656 30.3044 95.7153 29.6418 95.036 29.6418C94.3567 29.607 94.1064 30.2347 94.1064 30.8624Z" fill="#8B8A8A"/>
<path d="M99.8629 27.968C99.8629 28.2469 99.6484 28.4562 99.3266 28.4562C99.0048 28.4562 98.7902 28.2469 98.7902 27.968C98.7902 27.689 99.0048 27.4797 99.3266 27.4797C99.6484 27.4797 99.8629 27.689 99.8629 27.968ZM98.8617 32.6758V29.0141H99.8271V32.6758H98.8617Z" fill="#8B8A8A"/>
<path d="M104.726 32.5712C104.511 32.6758 104.118 32.7455 103.653 32.7455C102.473 32.7455 101.722 32.0132 101.722 30.8624C101.722 29.7465 102.509 28.9095 103.832 28.9095C104.189 28.9095 104.547 28.9793 104.761 29.0839L104.582 29.7813C104.439 29.7116 104.189 29.6418 103.867 29.6418C103.152 29.6418 102.723 30.1649 102.723 30.8275C102.723 31.5947 103.224 32.0132 103.867 32.0132C104.189 32.0132 104.439 31.9434 104.618 31.8737L104.726 32.5712Z" fill="#8B8A8A"/>
<path d="M107.586 27.968C107.586 28.2469 107.371 28.4562 107.05 28.4562C106.728 28.4562 106.513 28.2469 106.513 27.968C106.513 27.689 106.728 27.4797 107.05 27.4797C107.371 27.4797 107.55 27.689 107.586 27.968ZM106.549 32.6758V29.0141H107.514V32.6758H106.549Z" fill="#8B8A8A"/>
<path d="M109.66 30.0952C109.66 29.6767 109.66 29.328 109.624 29.0141H110.446L110.482 29.5721H110.518C110.697 29.2931 111.09 28.9444 111.733 28.9444C112.377 28.9444 113.056 29.3629 113.056 30.5137V32.7107H112.091V30.6183C112.091 30.0952 111.876 29.6767 111.376 29.6767C110.983 29.6767 110.732 29.9557 110.625 30.2347C110.589 30.3044 110.589 30.4439 110.589 30.5485V32.7107H109.624V30.0952H109.66Z" fill="#8B8A8A"/>
<path d="M118.67 29.0141C118.67 29.2583 118.634 29.5721 118.634 30.0603V32.1527C118.634 32.9199 118.455 33.4779 118.062 33.8266C117.669 34.1753 117.132 34.2799 116.596 34.2799C116.131 34.2799 115.595 34.1753 115.273 34.0009L115.488 33.3035C115.738 33.443 116.131 33.5825 116.596 33.5825C117.204 33.5825 117.669 33.2686 117.669 32.4665V32.1178C117.454 32.4317 117.061 32.6758 116.56 32.6758C115.631 32.6758 114.951 31.9086 114.951 30.8973C114.951 29.6767 115.774 28.9444 116.668 28.9444C117.24 28.9444 117.597 29.2234 117.776 29.5024L117.812 29.0141H118.67ZM117.669 30.4788C117.669 30.4091 117.669 30.3044 117.633 30.2347C117.526 29.886 117.275 29.6419 116.846 29.6419C116.31 29.6419 115.917 30.0952 115.917 30.8275C115.917 31.4552 116.239 31.9435 116.846 31.9435C117.204 31.9435 117.526 31.7342 117.633 31.3855C117.669 31.2809 117.669 31.1763 117.669 31.0368V30.4788Z" fill="#8B8A8A"/>
<path d="M123.461 31.8388C123.676 31.9783 124.105 32.1178 124.426 32.1178C124.855 32.1178 125.034 31.9435 125.034 31.6993C125.034 31.4552 124.891 31.3157 124.426 31.1763C123.676 30.9321 123.389 30.5485 123.389 30.0952C123.389 29.4326 123.926 28.9444 124.82 28.9444C125.249 28.9444 125.606 29.049 125.821 29.1536L125.642 29.8162C125.463 29.7116 125.141 29.607 124.82 29.607C124.462 29.607 124.283 29.7813 124.283 29.9906C124.283 30.2347 124.462 30.3393 124.927 30.5137C125.606 30.7578 125.928 31.1065 125.928 31.6296C125.928 32.2922 125.392 32.7804 124.391 32.7804C123.926 32.7804 123.532 32.6758 123.246 32.5363L123.461 31.8388Z" fill="#8B8A8A"/>
<path d="M131.47 30.8275C131.47 32.1876 130.505 32.7804 129.539 32.7804C128.467 32.7804 127.644 32.0481 127.644 30.8973C127.644 29.6767 128.467 28.9444 129.611 28.9444C130.719 28.9095 131.47 29.7116 131.47 30.8275ZM128.61 30.8624C128.61 31.5599 128.967 32.1178 129.539 32.1178C130.076 32.1178 130.469 31.5947 130.469 30.8624C130.469 30.3044 130.219 29.6418 129.539 29.6418C128.896 29.607 128.61 30.2347 128.61 30.8624Z" fill="#8B8A8A"/>
<path d="M133.365 27.3402H134.33V32.7106H133.365V27.3402Z" fill="#8B8A8A"/>
<path d="M139.872 31.5947C139.872 32.0481 139.872 32.3968 139.908 32.7106H139.086L139.05 32.1527C138.871 32.4317 138.514 32.7804 137.834 32.7804C137.155 32.7804 136.511 32.3968 136.511 31.1762V29.0141H137.477V31.0019C137.477 31.6296 137.691 32.0132 138.192 32.0132C138.585 32.0132 138.835 31.7342 138.907 31.525C138.943 31.4552 138.979 31.3506 138.979 31.246V29.0141H139.944V31.5947H139.872Z" fill="#8B8A8A"/>
<path d="M143.126 27.968V29.0141H144.02V29.7116H143.126V31.3506C143.126 31.804 143.233 32.0132 143.627 32.0132C143.805 32.0132 143.913 31.9783 143.984 31.9783V32.6758C143.841 32.7455 143.591 32.7804 143.305 32.7804C142.947 32.7804 142.661 32.6758 142.482 32.4665C142.268 32.2573 142.196 31.9086 142.196 31.4552V29.7116H141.66V29.0141H142.196V28.1772L143.126 27.968Z" fill="#8B8A8A"/>
<path d="M146.88 27.968C146.88 28.2469 146.666 28.4562 146.344 28.4562C146.022 28.4562 145.808 28.2469 145.808 27.968C145.808 27.689 146.022 27.4797 146.344 27.4797C146.666 27.4797 146.88 27.689 146.88 27.968ZM145.879 32.6758V29.0141H146.845V32.6758H145.879Z" fill="#8B8A8A"/>
<path d="M152.565 30.8275C152.565 32.1876 151.6 32.7804 150.635 32.7804C149.562 32.7804 148.74 32.0481 148.74 30.8973C148.74 29.6767 149.562 28.9444 150.706 28.9444C151.814 28.9095 152.565 29.7116 152.565 30.8275ZM149.705 30.8624C149.705 31.5599 150.062 32.1178 150.635 32.1178C151.171 32.1178 151.564 31.5947 151.564 30.8624C151.564 30.3044 151.314 29.6418 150.635 29.6418C149.991 29.607 149.705 30.2347 149.705 30.8624Z" fill="#8B8A8A"/>
<path d="M154.46 30.0952C154.46 29.6767 154.46 29.328 154.425 29.0141H155.247L155.283 29.5721H155.318C155.497 29.2931 155.89 28.9444 156.534 28.9444C157.178 28.9444 157.857 29.3629 157.857 30.5137V32.7107H156.892V30.6183C156.892 30.0952 156.677 29.6767 156.177 29.6767C155.783 29.6767 155.533 29.9557 155.426 30.2347C155.39 30.3044 155.39 30.4439 155.39 30.5485V32.7107H154.46V30.0952Z" fill="#8B8A8A"/>
<path d="M31.1423 10.6365L28.3177 10.0785L26.2439 9.69494L25.2786 9.4857L22.4897 8.96261C21.6316 8.78825 20.8092 9.34621 20.6305 10.1832C20.4517 10.9852 21.0238 11.8222 21.8819 11.9617L25.6361 12.694L30.5345 13.6356C31.3569 13.8099 32.1792 13.252 32.358 12.4499C32.5368 11.6129 31.9647 10.8109 31.1423 10.6365Z" fill="#8B8A8A"/>
<path d="M17.9489 11.1945C18.8177 11.1945 19.5221 10.5075 19.5221 9.66007C19.5221 8.81265 18.8177 8.12567 17.9489 8.12567C17.08 8.12567 16.3757 8.81265 16.3757 9.66007C16.3757 10.5075 17.08 11.1945 17.9489 11.1945Z" fill="#8B8A8A"/>
<path d="M28.8183 16.809L26.0652 16.1813L23.9914 15.6931L23.026 15.4838L20.2372 14.8212C19.4148 14.6469 18.5567 15.1351 18.3422 15.972C18.1634 16.7741 18.664 17.6111 19.5221 17.8203L23.2406 18.6921L28.0674 19.808C28.9255 20.0173 29.7479 19.4942 29.9624 18.6572C30.177 17.8552 29.6764 17.0182 28.8183 16.809Z" fill="#8B8A8A"/>
<path d="M15.6963 16.8787C16.5652 16.8787 17.2695 16.1918 17.2695 15.3443C17.2695 14.4969 16.5652 13.8099 15.6963 13.8099C14.8275 13.8099 14.1231 14.4969 14.1231 15.3443C14.1231 16.1918 14.8275 16.8787 15.6963 16.8787Z" fill="#8B8A8A"/>
<path d="M26.6015 22.842L23.8484 22.1445L21.7746 21.6214L20.8092 21.3773L18.0561 20.6799C17.198 20.4706 16.3399 20.9937 16.1254 21.7958C15.9108 22.6327 16.4472 23.4697 17.2695 23.6789L20.988 24.5856L25.8149 25.8062C26.6372 26.0154 27.5311 25.5272 27.7456 24.6902C27.9244 23.8882 27.4239 23.0512 26.6015 22.842Z" fill="#8B8A8A"/>
<path d="M13.5868 19.5988C12.6929 19.5639 11.9778 20.2265 11.9063 21.0635C11.8706 21.9004 12.5499 22.6328 13.408 22.6676C14.2661 22.7025 15.017 22.0748 15.0527 21.2378C15.0885 20.366 14.4449 19.6686 13.5868 19.5988Z" fill="#8B8A8A"/>
<path d="M8.47388 21.5514C9.11746 21.5514 9.65378 21.1678 9.86831 20.6447L16.4472 3.73139L17.2338 3.87088L30.7848 6.52121L31.8217 6.69557C31.7144 6.20736 31.6429 5.71914 31.6429 5.19605C31.6429 4.63808 31.7144 4.08012 31.8574 3.5919L31.1424 3.45241V3.41753L18.4137 0.976441L17.8416 0.871822L16.0896 0.523095C16.0896 0.523095 14.5879 0.278985 14.0516 1.56928L13.8013 2.19699L7.04369 19.5636C7.00794 19.738 6.97218 19.8775 6.97218 20.0518C6.97218 20.8888 7.65152 21.5514 8.47388 21.5514Z" fill="#E95626"/>
<path d="M38.2217 11.6126C37.1848 11.6126 36.2194 11.3685 35.3255 10.95L33.1802 17.1225L32.2864 19.738H32.3221C30.9992 23.5042 28.4606 30.1998 26.4941 31.8737C26.3511 31.9783 26.2438 32.0481 26.1366 32.1178C23.1689 34.3845 21.3097 33.9312 21.3097 33.9312C17.77 33.6871 17.8057 27.689 17.8057 27.689L0.214406 20.819C-1.18003 28.77 4.3262 30.3044 4.3262 30.3044L7.32959 31.6296L16.2325 35.5702C19.4504 37.1046 21.1309 37 21.1309 37C24.5634 37.0349 26.9947 35.3261 27.8885 34.5589C27.9243 34.524 31.464 32.606 36.1121 17.9595L38.2932 11.6475C38.2932 11.6126 38.2574 11.6126 38.2217 11.6126Z" fill="#E95626"/>
<path d="M38.1503 0C35.2184 0 32.8228 2.33648 32.8228 5.19604C32.8228 8.05561 35.2184 10.3921 38.1503 10.3921C41.0822 10.3921 43.4777 8.05561 43.4777 5.19604C43.5135 2.33648 41.1179 0 38.1503 0ZM41.3682 4.56833L38.0788 7.77663C37.9357 7.91612 37.757 7.98586 37.5782 7.98586C37.3994 7.98586 37.2207 7.91612 37.0776 7.77663L35.3257 6.10273C35.0396 5.82375 35.0396 5.40528 35.3257 5.16117C35.6117 4.88219 36.0408 4.88219 36.291 5.16117L37.5782 6.41659L40.4028 3.66164C40.6889 3.38266 41.1179 3.38266 41.3682 3.66164C41.6542 3.90575 41.6542 4.32422 41.3682 4.56833Z" fill="#E95626"/>
</g>
<defs>
<clipPath id="clip0_1_676">
<rect width="158" height="37" fill="white"/>
</clipPath>
</defs>
</svg>
